<?xml version="1.0" standalone="no"?>
<!DOCTYPE svg PUBLIC "-//W3C//DTD SVG 20010904//EN"
 "http://www.w3.org/TR/2001/REC-SVG-20010904/DTD/svg10.dtd">
<svg version="1.0" xmlns="http://www.w3.org/2000/svg"
 width="80.000000pt" height="80.000000pt" viewBox="0 0 80.000000 80.000000"
 preserveAspectRatio="xMidYMid meet">

<g transform="translate(0.000000,80.000000) scale(0.100000,-0.100000)"
fill="#094c61" stroke="none">
<path d="M195 708 c-82 -29 -135 -102 -135 -186 0 -65 14 -104 66 -182 51 -78
220 -246 256 -255 39 -10 73 13 174 117 136 138 184 223 184 320 0 86 -54 158
-139 187 -52 17 -83 13 -146 -18 l-57 -29 -55 29 c-57 30 -97 35 -148 17z
m122 -57 c23 -11 48 -29 55 -40 18 -29 33 -26 73 13 82 82 214 44 244 -71 14
-53 -7 -115 -72 -205 -50 -69 -198 -218 -217 -218 -21 0 -169 151 -221 224
-101 143 -95 242 16 300 39 21 71 20 122 -3z"/>
</g>
</svg>
