<?xml version="1.0" standalone="no"?>
<!DOCTYPE svg PUBLIC "-//W3C//DTD SVG 20010904//EN"
 "http://www.w3.org/TR/2001/REC-SVG-20010904/DTD/svg10.dtd">
<svg version="1.0" xmlns="http://www.w3.org/2000/svg"
 width="80.000000pt" height="80.000000pt" viewBox="0 0 80.000000 80.000000"
 preserveAspectRatio="xMidYMid meet">

<g transform="translate(0.000000,80.000000) scale(0.100000,-0.100000)"
fill="#094c61" stroke="none">
<path d="M158 685 c-53 -29 -58 -54 -58 -285 0 -310 -10 -300 300 -300 233 0
257 5 285 60 12 22 15 53 13 113 -3 74 -5 82 -23 82 -18 0 -20 -8 -23 -85 -4
-126 8 -120 -252 -120 -197 0 -218 2 -233 18 -15 16 -17 48 -17 234 0 258 -6
246 120 250 77 3 85 5 85 23 0 18 -7 20 -85 22 -61 2 -93 -2 -112 -12z"/>
<path d="M573 684 c-3 -8 4 -25 17 -39 26 -28 23 -30 -57 -39 -145 -14 -280
-158 -291 -308 -4 -53 -3 -58 16 -58 16 0 21 9 26 53 20 145 129 254 275 273
52 7 53 6 42 -14 -6 -11 -16 -24 -21 -27 -6 -3 -10 -13 -10 -21 0 -28 37 -13
85 36 54 55 55 51 -20 122 -44 42 -53 45 -62 22z"/>
</g>
</svg>
